<?xml version="1.0" encoding="UTF-8"?>
<!-- SA Systems — MEDIFLOW store banner -->
<svg xmlns="http://www.w3.org/2000/svg" viewBox="0 0 1200 1200" width="1200" height="1200" role="img" aria-label="SA Systems">
  <defs>
    <linearGradient id="sky" x1="0" y1="0" x2="1" y2="1">
      <stop offset="0" stop-color="#0B0B0B"/>
      <stop offset="0.52" stop-color="#161616"/>
      <stop offset="1" stop-color="#2A0A0C"/>
    </linearGradient>
    <linearGradient id="rule" x1="0" y1="0" x2="1" y2="0">
      <stop offset="0" stop-color="#E5232A"/>
      <stop offset="1" stop-color="#C41E24"/>
    </linearGradient>
    <radialGradient id="warm" cx="0.5" cy="0.5" r="0.5">
      <stop offset="0" stop-color="#E5232A" stop-opacity="0.30"/>
      <stop offset="1" stop-color="#E5232A" stop-opacity="0"/>
    </radialGradient>
    <linearGradient id="chip" x1="0" y1="0" x2="0" y2="1">
      <stop offset="0" stop-color="#FFFFFF"/>
      <stop offset="1" stop-color="#F2F2F2"/>
    </linearGradient>
  </defs>
  <rect width="1200" height="1200" fill="url(#sky)"/>
  <g fill="none" stroke="#FFFFFF" stroke-width="2.4" opacity="0.04" stroke-linejoin="round">
    <path d="M-60.0,-146.0 L14.5,-103.0 L14.5,-17.0 L-60.0,26.0 L-134.5,-17.0 L-134.5,-103.0 Z"/>
    <path d="M89.0,-146.0 L163.4,-103.0 L163.4,-17.0 L89.0,26.0 L14.5,-17.0 L14.5,-103.0 Z"/>
    <path d="M237.9,-146.0 L312.4,-103.0 L312.4,-17.0 L237.9,26.0 L163.4,-17.0 L163.4,-103.0 Z"/>
    <path d="M386.9,-146.0 L461.3,-103.0 L461.3,-17.0 L386.9,26.0 L312.4,-17.0 L312.4,-103.0 Z"/>
    <path d="M535.8,-146.0 L610.3,-103.0 L610.3,-17.0 L535.8,26.0 L461.3,-17.0 L461.3,-103.0 Z"/>
    <path d="M684.8,-146.0 L759.3,-103.0 L759.3,-17.0 L684.8,26.0 L610.3,-17.0 L610.3,-103.0 Z"/>
    <path d="M833.7,-146.0 L908.2,-103.0 L908.2,-17.0 L833.7,26.0 L759.3,-17.0 L759.3,-103.0 Z"/>
    <path d="M982.7,-146.0 L1057.2,-103.0 L1057.2,-17.0 L982.7,26.0 L908.2,-17.0 L908.2,-103.0 Z"/>
    <path d="M1131.7,-146.0 L1206.1,-103.0 L1206.1,-17.0 L1131.7,26.0 L1057.2,-17.0 L1057.2,-103.0 Z"/>
    <path d="M1280.6,-146.0 L1355.1,-103.0 L1355.1,-17.0 L1280.6,26.0 L1206.1,-17.0 L1206.1,-103.0 Z"/>
    <path d="M14.5,-17.0 L89.0,26.0 L89.0,112.0 L14.5,155.0 L-60.0,112.0 L-60.0,26.0 Z"/>
    <path d="M163.4,-17.0 L237.9,26.0 L237.9,112.0 L163.4,155.0 L89.0,112.0 L89.0,26.0 Z"/>
    <path d="M312.4,-17.0 L386.9,26.0 L386.9,112.0 L312.4,155.0 L237.9,112.0 L237.9,26.0 Z"/>
    <path d="M461.3,-17.0 L535.8,26.0 L535.8,112.0 L461.3,155.0 L386.9,112.0 L386.9,26.0 Z"/>
    <path d="M610.3,-17.0 L684.8,26.0 L684.8,112.0 L610.3,155.0 L535.8,112.0 L535.8,26.0 Z"/>
    <path d="M759.3,-17.0 L833.7,26.0 L833.7,112.0 L759.3,155.0 L684.8,112.0 L684.8,26.0 Z"/>
    <path d="M908.2,-17.0 L982.7,26.0 L982.7,112.0 L908.2,155.0 L833.7,112.0 L833.7,26.0 Z"/>
    <path d="M1057.2,-17.0 L1131.7,26.0 L1131.7,112.0 L1057.2,155.0 L982.7,112.0 L982.7,26.0 Z"/>
    <path d="M1206.1,-17.0 L1280.6,26.0 L1280.6,112.0 L1206.1,155.0 L1131.7,112.0 L1131.7,26.0 Z"/>
    <path d="M1355.1,-17.0 L1429.6,26.0 L1429.6,112.0 L1355.1,155.0 L1280.6,112.0 L1280.6,26.0 Z"/>
    <path d="M-60.0,112.0 L14.5,155.0 L14.5,241.0 L-60.0,284.0 L-134.5,241.0 L-134.5,155.0 Z"/>
    <path d="M89.0,112.0 L163.4,155.0 L163.4,241.0 L89.0,284.0 L14.5,241.0 L14.5,155.0 Z"/>
    <path d="M237.9,112.0 L312.4,155.0 L312.4,241.0 L237.9,284.0 L163.4,241.0 L163.4,155.0 Z"/>
    <path d="M386.9,112.0 L461.3,155.0 L461.3,241.0 L386.9,284.0 L312.4,241.0 L312.4,155.0 Z"/>
    <path d="M535.8,112.0 L610.3,155.0 L610.3,241.0 L535.8,284.0 L461.3,241.0 L461.3,155.0 Z"/>
    <path d="M684.8,112.0 L759.3,155.0 L759.3,241.0 L684.8,284.0 L610.3,241.0 L610.3,155.0 Z"/>
    <path d="M833.7,112.0 L908.2,155.0 L908.2,241.0 L833.7,284.0 L759.3,241.0 L759.3,155.0 Z"/>
    <path d="M982.7,112.0 L1057.2,155.0 L1057.2,241.0 L982.7,284.0 L908.2,241.0 L908.2,155.0 Z"/>
    <path d="M1131.7,112.0 L1206.1,155.0 L1206.1,241.0 L1131.7,284.0 L1057.2,241.0 L1057.2,155.0 Z"/>
    <path d="M1280.6,112.0 L1355.1,155.0 L1355.1,241.0 L1280.6,284.0 L1206.1,241.0 L1206.1,155.0 Z"/>
    <path d="M14.5,241.0 L89.0,284.0 L89.0,370.0 L14.5,413.0 L-60.0,370.0 L-60.0,284.0 Z"/>
    <path d="M163.4,241.0 L237.9,284.0 L237.9,370.0 L163.4,413.0 L89.0,370.0 L89.0,284.0 Z"/>
    <path d="M312.4,241.0 L386.9,284.0 L386.9,370.0 L312.4,413.0 L237.9,370.0 L237.9,284.0 Z"/>
    <path d="M461.3,241.0 L535.8,284.0 L535.8,370.0 L461.3,413.0 L386.9,370.0 L386.9,284.0 Z"/>
    <path d="M610.3,241.0 L684.8,284.0 L684.8,370.0 L610.3,413.0 L535.8,370.0 L535.8,284.0 Z"/>
    <path d="M759.3,241.0 L833.7,284.0 L833.7,370.0 L759.3,413.0 L684.8,370.0 L684.8,284.0 Z"/>
    <path d="M908.2,241.0 L982.7,284.0 L982.7,370.0 L908.2,413.0 L833.7,370.0 L833.7,284.0 Z"/>
    <path d="M1057.2,241.0 L1131.7,284.0 L1131.7,370.0 L1057.2,413.0 L982.7,370.0 L982.7,284.0 Z"/>
    <path d="M1206.1,241.0 L1280.6,284.0 L1280.6,370.0 L1206.1,413.0 L1131.7,370.0 L1131.7,284.0 Z"/>
    <path d="M1355.1,241.0 L1429.6,284.0 L1429.6,370.0 L1355.1,413.0 L1280.6,370.0 L1280.6,284.0 Z"/>
    <path d="M-60.0,370.0 L14.5,413.0 L14.5,499.0 L-60.0,542.0 L-134.5,499.0 L-134.5,413.0 Z"/>
    <path d="M89.0,370.0 L163.4,413.0 L163.4,499.0 L89.0,542.0 L14.5,499.0 L14.5,413.0 Z"/>
    <path d="M237.9,370.0 L312.4,413.0 L312.4,499.0 L237.9,542.0 L163.4,499.0 L163.4,413.0 Z"/>
    <path d="M386.9,370.0 L461.3,413.0 L461.3,499.0 L386.9,542.0 L312.4,499.0 L312.4,413.0 Z"/>
    <path d="M535.8,370.0 L610.3,413.0 L610.3,499.0 L535.8,542.0 L461.3,499.0 L461.3,413.0 Z"/>
    <path d="M684.8,370.0 L759.3,413.0 L759.3,499.0 L684.8,542.0 L610.3,499.0 L610.3,413.0 Z"/>
    <path d="M833.7,370.0 L908.2,413.0 L908.2,499.0 L833.7,542.0 L759.3,499.0 L759.3,413.0 Z"/>
    <path d="M982.7,370.0 L1057.2,413.0 L1057.2,499.0 L982.7,542.0 L908.2,499.0 L908.2,413.0 Z"/>
    <path d="M1131.7,370.0 L1206.1,413.0 L1206.1,499.0 L1131.7,542.0 L1057.2,499.0 L1057.2,413.0 Z"/>
    <path d="M1280.6,370.0 L1355.1,413.0 L1355.1,499.0 L1280.6,542.0 L1206.1,499.0 L1206.1,413.0 Z"/>
    <path d="M14.5,499.0 L89.0,542.0 L89.0,628.0 L14.5,671.0 L-60.0,628.0 L-60.0,542.0 Z"/>
    <path d="M163.4,499.0 L237.9,542.0 L237.9,628.0 L163.4,671.0 L89.0,628.0 L89.0,542.0 Z"/>
    <path d="M312.4,499.0 L386.9,542.0 L386.9,628.0 L312.4,671.0 L237.9,628.0 L237.9,542.0 Z"/>
    <path d="M461.3,499.0 L535.8,542.0 L535.8,628.0 L461.3,671.0 L386.9,628.0 L386.9,542.0 Z"/>
    <path d="M610.3,499.0 L684.8,542.0 L684.8,628.0 L610.3,671.0 L535.8,628.0 L535.8,542.0 Z"/>
    <path d="M759.3,499.0 L833.7,542.0 L833.7,628.0 L759.3,671.0 L684.8,628.0 L684.8,542.0 Z"/>
    <path d="M908.2,499.0 L982.7,542.0 L982.7,628.0 L908.2,671.0 L833.7,628.0 L833.7,542.0 Z"/>
    <path d="M1057.2,499.0 L1131.7,542.0 L1131.7,628.0 L1057.2,671.0 L982.7,628.0 L982.7,542.0 Z"/>
    <path d="M1206.1,499.0 L1280.6,542.0 L1280.6,628.0 L1206.1,671.0 L1131.7,628.0 L1131.7,542.0 Z"/>
    <path d="M1355.1,499.0 L1429.6,542.0 L1429.6,628.0 L1355.1,671.0 L1280.6,628.0 L1280.6,542.0 Z"/>
    <path d="M-60.0,628.0 L14.5,671.0 L14.5,757.0 L-60.0,800.0 L-134.5,757.0 L-134.5,671.0 Z"/>
    <path d="M89.0,628.0 L163.4,671.0 L163.4,757.0 L89.0,800.0 L14.5,757.0 L14.5,671.0 Z"/>
    <path d="M237.9,628.0 L312.4,671.0 L312.4,757.0 L237.9,800.0 L163.4,757.0 L163.4,671.0 Z"/>
    <path d="M386.9,628.0 L461.3,671.0 L461.3,757.0 L386.9,800.0 L312.4,757.0 L312.4,671.0 Z"/>
    <path d="M535.8,628.0 L610.3,671.0 L610.3,757.0 L535.8,800.0 L461.3,757.0 L461.3,671.0 Z"/>
    <path d="M684.8,628.0 L759.3,671.0 L759.3,757.0 L684.8,800.0 L610.3,757.0 L610.3,671.0 Z"/>
    <path d="M833.7,628.0 L908.2,671.0 L908.2,757.0 L833.7,800.0 L759.3,757.0 L759.3,671.0 Z"/>
    <path d="M982.7,628.0 L1057.2,671.0 L1057.2,757.0 L982.7,800.0 L908.2,757.0 L908.2,671.0 Z"/>
    <path d="M1131.7,628.0 L1206.1,671.0 L1206.1,757.0 L1131.7,800.0 L1057.2,757.0 L1057.2,671.0 Z"/>
    <path d="M1280.6,628.0 L1355.1,671.0 L1355.1,757.0 L1280.6,800.0 L1206.1,757.0 L1206.1,671.0 Z"/>
    <path d="M14.5,757.0 L89.0,800.0 L89.0,886.0 L14.5,929.0 L-60.0,886.0 L-60.0,800.0 Z"/>
    <path d="M163.4,757.0 L237.9,800.0 L237.9,886.0 L163.4,929.0 L89.0,886.0 L89.0,800.0 Z"/>
    <path d="M312.4,757.0 L386.9,800.0 L386.9,886.0 L312.4,929.0 L237.9,886.0 L237.9,800.0 Z"/>
    <path d="M461.3,757.0 L535.8,800.0 L535.8,886.0 L461.3,929.0 L386.9,886.0 L386.9,800.0 Z"/>
    <path d="M610.3,757.0 L684.8,800.0 L684.8,886.0 L610.3,929.0 L535.8,886.0 L535.8,800.0 Z"/>
    <path d="M759.3,757.0 L833.7,800.0 L833.7,886.0 L759.3,929.0 L684.8,886.0 L684.8,800.0 Z"/>
    <path d="M908.2,757.0 L982.7,800.0 L982.7,886.0 L908.2,929.0 L833.7,886.0 L833.7,800.0 Z"/>
    <path d="M1057.2,757.0 L1131.7,800.0 L1131.7,886.0 L1057.2,929.0 L982.7,886.0 L982.7,800.0 Z"/>
    <path d="M1206.1,757.0 L1280.6,800.0 L1280.6,886.0 L1206.1,929.0 L1131.7,886.0 L1131.7,800.0 Z"/>
    <path d="M1355.1,757.0 L1429.6,800.0 L1429.6,886.0 L1355.1,929.0 L1280.6,886.0 L1280.6,800.0 Z"/>
    <path d="M-60.0,886.0 L14.5,929.0 L14.5,1015.0 L-60.0,1058.0 L-134.5,1015.0 L-134.5,929.0 Z"/>
    <path d="M89.0,886.0 L163.4,929.0 L163.4,1015.0 L89.0,1058.0 L14.5,1015.0 L14.5,929.0 Z"/>
    <path d="M237.9,886.0 L312.4,929.0 L312.4,1015.0 L237.9,1058.0 L163.4,1015.0 L163.4,929.0 Z"/>
    <path d="M386.9,886.0 L461.3,929.0 L461.3,1015.0 L386.9,1058.0 L312.4,1015.0 L312.4,929.0 Z"/>
    <path d="M535.8,886.0 L610.3,929.0 L610.3,1015.0 L535.8,1058.0 L461.3,1015.0 L461.3,929.0 Z"/>
    <path d="M684.8,886.0 L759.3,929.0 L759.3,1015.0 L684.8,1058.0 L610.3,1015.0 L610.3,929.0 Z"/>
    <path d="M833.7,886.0 L908.2,929.0 L908.2,1015.0 L833.7,1058.0 L759.3,1015.0 L759.3,929.0 Z"/>
    <path d="M982.7,886.0 L1057.2,929.0 L1057.2,1015.0 L982.7,1058.0 L908.2,1015.0 L908.2,929.0 Z"/>
    <path d="M1131.7,886.0 L1206.1,929.0 L1206.1,1015.0 L1131.7,1058.0 L1057.2,1015.0 L1057.2,929.0 Z"/>
    <path d="M1280.6,886.0 L1355.1,929.0 L1355.1,1015.0 L1280.6,1058.0 L1206.1,1015.0 L1206.1,929.0 Z"/>
    <path d="M14.5,1015.0 L89.0,1058.0 L89.0,1144.0 L14.5,1187.0 L-60.0,1144.0 L-60.0,1058.0 Z"/>
    <path d="M163.4,1015.0 L237.9,1058.0 L237.9,1144.0 L163.4,1187.0 L89.0,1144.0 L89.0,1058.0 Z"/>
    <path d="M312.4,1015.0 L386.9,1058.0 L386.9,1144.0 L312.4,1187.0 L237.9,1144.0 L237.9,1058.0 Z"/>
    <path d="M461.3,1015.0 L535.8,1058.0 L535.8,1144.0 L461.3,1187.0 L386.9,1144.0 L386.9,1058.0 Z"/>
    <path d="M610.3,1015.0 L684.8,1058.0 L684.8,1144.0 L610.3,1187.0 L535.8,1144.0 L535.8,1058.0 Z"/>
    <path d="M759.3,1015.0 L833.7,1058.0 L833.7,1144.0 L759.3,1187.0 L684.8,1144.0 L684.8,1058.0 Z"/>
    <path d="M908.2,1015.0 L982.7,1058.0 L982.7,1144.0 L908.2,1187.0 L833.7,1144.0 L833.7,1058.0 Z"/>
    <path d="M1057.2,1015.0 L1131.7,1058.0 L1131.7,1144.0 L1057.2,1187.0 L982.7,1144.0 L982.7,1058.0 Z"/>
    <path d="M1206.1,1015.0 L1280.6,1058.0 L1280.6,1144.0 L1206.1,1187.0 L1131.7,1144.0 L1131.7,1058.0 Z"/>
    <path d="M1355.1,1015.0 L1429.6,1058.0 L1429.6,1144.0 L1355.1,1187.0 L1280.6,1144.0 L1280.6,1058.0 Z"/>
    <path d="M-60.0,1144.0 L14.5,1187.0 L14.5,1273.0 L-60.0,1316.0 L-134.5,1273.0 L-134.5,1187.0 Z"/>
    <path d="M89.0,1144.0 L163.4,1187.0 L163.4,1273.0 L89.0,1316.0 L14.5,1273.0 L14.5,1187.0 Z"/>
    <path d="M237.9,1144.0 L312.4,1187.0 L312.4,1273.0 L237.9,1316.0 L163.4,1273.0 L163.4,1187.0 Z"/>
    <path d="M386.9,1144.0 L461.3,1187.0 L461.3,1273.0 L386.9,1316.0 L312.4,1273.0 L312.4,1187.0 Z"/>
    <path d="M535.8,1144.0 L610.3,1187.0 L610.3,1273.0 L535.8,1316.0 L461.3,1273.0 L461.3,1187.0 Z"/>
    <path d="M684.8,1144.0 L759.3,1187.0 L759.3,1273.0 L684.8,1316.0 L610.3,1273.0 L610.3,1187.0 Z"/>
    <path d="M833.7,1144.0 L908.2,1187.0 L908.2,1273.0 L833.7,1316.0 L759.3,1273.0 L759.3,1187.0 Z"/>
    <path d="M982.7,1144.0 L1057.2,1187.0 L1057.2,1273.0 L982.7,1316.0 L908.2,1273.0 L908.2,1187.0 Z"/>
    <path d="M1131.7,1144.0 L1206.1,1187.0 L1206.1,1273.0 L1131.7,1316.0 L1057.2,1273.0 L1057.2,1187.0 Z"/>
    <path d="M1280.6,1144.0 L1355.1,1187.0 L1355.1,1273.0 L1280.6,1316.0 L1206.1,1273.0 L1206.1,1187.0 Z"/>
  </g>
  <circle cx="266" cy="348" r="360" fill="url(#warm)"/>
  <g opacity="0.05">
  <g transform="translate(470.00 560.00) scale(1.7321)">
  <g transform="translate(51.96 60.00)" fill="none" stroke-linecap="round" stroke-linejoin="round">
    <line x1="107.56" y1="-57.90" x2="152.25" y2="-32.10" stroke="#FFFFFF" stroke-width="7"/>
    <line x1="155.88" y1="-25.80" x2="155.88" y2="25.80" stroke="#FFFFFF" stroke-width="7"/>
    <line x1="152.25" y1="32.10" x2="107.56" y2="57.90" stroke="#FFFFFF" stroke-width="7"/>
    <line x1="100.29" y1="57.90" x2="55.60" y2="32.10" stroke="#FFFFFF" stroke-width="7"/>
    <line x1="51.96" y1="25.80" x2="51.96" y2="-25.80" stroke="#FFFFFF" stroke-width="7"/>
    <line x1="55.60" y1="-32.10" x2="100.29" y2="-57.90" stroke="#FFFFFF" stroke-width="7"/>
    <line x1="107.56" y1="62.10" x2="152.25" y2="87.90" stroke="#FFFFFF" stroke-width="7"/>
    <line x1="155.88" y1="94.20" x2="155.88" y2="145.80" stroke="#FFFFFF" stroke-width="7"/>
    <line x1="152.25" y1="152.10" x2="107.56" y2="177.90" stroke="#FFFFFF" stroke-width="7"/>
    <line x1="100.29" y1="177.90" x2="55.60" y2="152.10" stroke="#FFFFFF" stroke-width="7"/>
    <line x1="51.96" y1="145.80" x2="51.96" y2="94.20" stroke="#FFFFFF" stroke-width="7"/>
    <line x1="55.60" y1="87.90" x2="100.29" y2="62.10" stroke="#FFFFFF" stroke-width="7"/>
    <line x1="315.41" y1="-57.90" x2="360.09" y2="-32.10" stroke="#FFFFFF" stroke-width="7"/>
    <line x1="363.73" y1="-25.80" x2="363.73" y2="25.80" stroke="#FFFFFF" stroke-width="7"/>
    <line x1="360.09" y1="32.10" x2="315.41" y2="57.90" stroke="#FFFFFF" stroke-width="7"/>
    <line x1="308.13" y1="57.90" x2="263.44" y2="32.10" stroke="#FFFFFF" stroke-width="7"/>
    <line x1="259.81" y1="25.80" x2="259.81" y2="-25.80" stroke="#FFFFFF" stroke-width="7"/>
    <line x1="263.44" y1="-32.10" x2="308.13" y2="-57.90" stroke="#FFFFFF" stroke-width="7"/>
    <line x1="315.41" y1="62.10" x2="360.09" y2="87.90" stroke="#FFFFFF" stroke-width="7"/>
    <line x1="363.73" y1="94.20" x2="363.73" y2="145.80" stroke="#FFFFFF" stroke-width="7"/>
    <line x1="360.09" y1="152.10" x2="315.41" y2="177.90" stroke="#FFFFFF" stroke-width="7"/>
    <line x1="308.13" y1="177.90" x2="263.44" y2="152.10" stroke="#FFFFFF" stroke-width="7"/>
    <line x1="259.81" y1="145.80" x2="259.81" y2="94.20" stroke="#FFFFFF" stroke-width="7"/>
    <line x1="263.44" y1="87.90" x2="308.13" y2="62.10" stroke="#FFFFFF" stroke-width="7"/>
    <line x1="3.64" y1="-57.90" x2="48.32" y2="-32.10" stroke="#FFFFFF" stroke-width="11"/>
    <line x1="48.32" y1="32.10" x2="3.64" y2="57.90" stroke="#FFFFFF" stroke-width="11"/>
    <line x1="-3.64" y1="57.90" x2="-48.32" y2="32.10" stroke="#FFFFFF" stroke-width="11"/>
    <line x1="-51.96" y1="25.80" x2="-51.96" y2="-25.80" stroke="#FFFFFF" stroke-width="11"/>
    <line x1="-48.32" y1="-32.10" x2="-3.64" y2="-57.90" stroke="#FFFFFF" stroke-width="11"/>
    <line x1="3.64" y1="62.10" x2="48.32" y2="87.90" stroke="#FFFFFF" stroke-width="11"/>
    <line x1="48.32" y1="152.10" x2="3.64" y2="177.90" stroke="#FFFFFF" stroke-width="11"/>
    <line x1="-3.64" y1="177.90" x2="-48.32" y2="152.10" stroke="#FFFFFF" stroke-width="11"/>
    <line x1="-51.96" y1="145.80" x2="-51.96" y2="94.20" stroke="#FFFFFF" stroke-width="11"/>
    <line x1="-48.32" y1="87.90" x2="-3.64" y2="62.10" stroke="#FFFFFF" stroke-width="11"/>
    <line x1="211.48" y1="-57.90" x2="256.17" y2="-32.10" stroke="#FFFFFF" stroke-width="11"/>
    <line x1="159.52" y1="-32.10" x2="204.21" y2="-57.90" stroke="#FFFFFF" stroke-width="11"/>
    <line x1="256.17" y1="152.10" x2="211.48" y2="177.90" stroke="#FFFFFF" stroke-width="11"/>
    <line x1="204.21" y1="177.90" x2="159.52" y2="152.10" stroke="#FFFFFF" stroke-width="11"/>
    <line x1="419.33" y1="-57.90" x2="464.02" y2="-32.10" stroke="#FFFFFF" stroke-width="11"/>
    <line x1="467.65" y1="-25.80" x2="467.65" y2="25.80" stroke="#FFFFFF" stroke-width="11"/>
    <line x1="464.02" y1="32.10" x2="419.33" y2="57.90" stroke="#FFFFFF" stroke-width="11"/>
    <line x1="412.05" y1="57.90" x2="367.37" y2="32.10" stroke="#FFFFFF" stroke-width="11"/>
    <line x1="367.37" y1="-32.10" x2="412.05" y2="-57.90" stroke="#FFFFFF" stroke-width="11"/>
    <line x1="419.33" y1="62.10" x2="464.02" y2="87.90" stroke="#FFFFFF" stroke-width="11"/>
    <line x1="467.65" y1="94.20" x2="467.65" y2="145.80" stroke="#FFFFFF" stroke-width="11"/>
    <line x1="464.02" y1="152.10" x2="419.33" y2="177.90" stroke="#FFFFFF" stroke-width="11"/>
    <line x1="412.05" y1="177.90" x2="367.37" y2="152.10" stroke="#FFFFFF" stroke-width="11"/>
    <line x1="367.37" y1="87.90" x2="412.05" y2="62.10" stroke="#FFFFFF" stroke-width="11"/>
    <line x1="179.83" y1="60.00" x2="235.86" y2="60.00" stroke="#FFFFFF" stroke-width="11"/>
  </g>
  </g>
  </g>
  <rect x="150" y="232" width="232" height="232" rx="50" fill="url(#chip)" stroke="#FFFFFF" stroke-opacity="0.6" stroke-width="2"/>
  <path d="M266.00,264.00 L338.75,306.00 L338.75,390.00 L266.00,432.00 L193.25,390.00 L193.25,306.00 Z" fill="none" stroke="#E5232A" stroke-width="11.3" stroke-linejoin="round"/>
  <g fill="none" stroke-linecap="round" stroke-linejoin="round">
    <line x1="299.30" y1="306.00" x2="232.70" y2="306.00" stroke="#D7D9DB" stroke-width="5.4"/>
    <line x1="274.94" y1="322.80" x2="257.06" y2="322.80" stroke="#D7D9DB" stroke-width="5.4"/>
    <line x1="235.10" y1="339.60" x2="296.90" y2="339.60" stroke="#D7D9DB" stroke-width="5.4"/>
    <line x1="248.77" y1="356.40" x2="283.23" y2="356.40" stroke="#D7D9DB" stroke-width="5.4"/>
    <line x1="292.27" y1="373.20" x2="239.73" y2="373.20" stroke="#D7D9DB" stroke-width="5.4"/>
    <line x1="290.29" y1="390.00" x2="241.71" y2="390.00" stroke="#D7D9DB" stroke-width="5.4"/>
    <path d="M266.00,289.20 L270.68,290.83 L275.26,292.47 L279.67,294.10 L283.81,295.73 L287.60,297.37 L290.97,299.00 L293.86,300.63 L296.20,302.27 L297.96,303.90 L299.09,305.53 L299.58,307.17 L299.42,308.80 L298.60,310.43 L297.15,312.07 L295.10,313.70 L292.48,315.33 L289.34,316.97 L285.75,318.60 L281.77,320.23 L277.49,321.87 L272.99,323.50 L268.34,325.13 L263.66,326.77 L259.01,328.40 L254.51,330.03 L250.23,331.67 L246.25,333.30 L242.66,334.93 L239.52,336.57 L236.90,338.20 L234.85,339.83 L233.40,341.47 L232.58,343.10 L232.42,344.73 L232.91,346.37 L234.04,348.00 L235.80,349.63 L238.14,351.27 L241.03,352.90 L244.40,354.53 L248.19,356.17 L252.33,357.80 L256.74,359.43 L261.32,361.07 L266.00,362.70 L270.68,364.33 L275.26,365.97 L279.67,367.60 L283.81,369.23 L287.60,370.87 L290.97,372.50 L293.86,374.13 L296.20,375.77 L297.96,377.40 L299.09,379.03 L299.58,380.67 L299.42,382.30 L298.60,383.93 L297.15,385.57 L295.10,387.20 L292.48,388.83 L289.34,390.47 L285.75,392.10 L281.77,393.73 L277.49,395.37 L272.99,397.00 L268.34,398.63 L263.66,400.27 L259.01,401.90 L254.51,403.53 L250.23,405.17 L246.25,406.80" stroke="#E5232A" stroke-width="9.1"/>
    <path d="M266.00,289.20 L261.32,290.83 L256.74,292.47 L252.33,294.10 L248.19,295.73 L244.40,297.37 L241.03,299.00 L238.14,300.63 L235.80,302.27 L234.04,303.90 L232.91,305.53 L232.42,307.17 L232.58,308.80 L233.40,310.43 L234.85,312.07 L236.90,313.70 L239.52,315.33 L242.66,316.97 L246.25,318.60 L250.23,320.23 L254.51,321.87 L259.01,323.50 L263.66,325.13 L268.34,326.77 L272.99,328.40 L277.49,330.03 L281.77,331.67 L285.75,333.30 L289.34,334.93 L292.48,336.57 L295.10,338.20 L297.15,339.83 L298.60,341.47 L299.42,343.10 L299.58,344.73 L299.09,346.37 L297.96,348.00 L296.20,349.63 L293.86,351.27 L290.97,352.90 L287.60,354.53 L283.81,356.17 L279.67,357.80 L275.26,359.43 L270.68,361.07 L266.00,362.70 L261.32,364.33 L256.74,365.97 L252.33,367.60 L248.19,369.23 L244.40,370.87 L241.03,372.50 L238.14,374.13 L235.80,375.77 L234.04,377.40 L232.91,379.03 L232.42,380.67 L232.58,382.30 L233.40,383.93 L234.85,385.57 L236.90,387.20 L239.52,388.83 L242.66,390.47 L246.25,392.10 L250.23,393.73 L254.51,395.37 L259.01,397.00 L263.66,398.63 L268.34,400.27 L272.99,401.90 L277.49,403.53 L281.77,405.17 L285.75,406.80" stroke="#0B0B0B" stroke-width="9.1"/>
  </g>
  <g font-family="'Poppins','Segoe UI','Helvetica Neue',Arial,sans-serif">
    <text x="430" y="330" font-size="124" font-weight="800" fill="#FFFFFF" letter-spacing="1">MEDI<tspan fill="#E5232A" font-weight="600">FLOW</tspan></text>
    <text x="434" y="388" font-size="34" font-weight="700" fill="#B0B0B0" letter-spacing="6">BY SA SYSTEMS</text>
  </g>
  <rect x="152" y="514" width="320" height="8" rx="4" fill="url(#rule)"/>
  <text x="152" y="606" font-family="'Poppins','Segoe UI','Helvetica Neue',Arial,sans-serif" font-size="54" font-weight="700" fill="#FFFFFF">Clinic &amp; Diagnostics ERP</text>
  <text x="152" y="672" font-family="'Poppins','Segoe UI','Helvetica Neue',Arial,sans-serif" font-size="34" font-weight="400" fill="#CFCFCF">Front desk · Lab bench · Revenue cycle — one Odoo install</text>
  <rect x="152" y="748" width="304" height="64" rx="32" fill="#FFFFFF" fill-opacity="0.06" stroke="#FFFFFF" stroke-opacity="0.38" stroke-width="2"/>
  <text x="304" y="789" text-anchor="middle" font-family="'Poppins','Segoe UI','Helvetica Neue',Arial,sans-serif" font-size="26" font-weight="600" fill="#EAF2F6">Multi-currency</text>
  <rect x="478" y="748" width="171" height="64" rx="32" fill="#FFFFFF" fill-opacity="0.06" stroke="#FFFFFF" stroke-opacity="0.38" stroke-width="2"/>
  <text x="564" y="789" text-anchor="middle" font-family="'Poppins','Segoe UI','Helvetica Neue',Arial,sans-serif" font-size="26" font-weight="600" fill="#EAF2F6">FHIR R4</text>
  <rect x="671" y="748" width="380" height="64" rx="32" fill="#FFFFFF" fill-opacity="0.06" stroke="#FFFFFF" stroke-opacity="0.38" stroke-width="2"/>
  <text x="861" y="789" text-anchor="middle" font-family="'Poppins','Segoe UI','Helvetica Neue',Arial,sans-serif" font-size="26" font-weight="600" fill="#EAF2F6">10 region profiles</text>
  <rect x="152" y="836" width="266" height="64" rx="32" fill="#FFFFFF" fill-opacity="0.06" stroke="#FFFFFF" stroke-opacity="0.38" stroke-width="2"/>
  <text x="285" y="877" text-anchor="middle" font-family="'Poppins','Segoe UI','Helvetica Neue',Arial,sans-serif" font-size="26" font-weight="600" fill="#EAF2F6">Odoo 18 &amp; 19</text>
  <text x="152" y="1060" font-family="'Poppins','Segoe UI','Helvetica Neue',Arial,sans-serif" font-size="30" font-weight="700" fill="#E5232A" letter-spacing="1">sasystems.solutions</text>
</svg>
