<?xml version="1.0" encoding="UTF-8"?>
<!-- SA Systems — MEDIFLOW app icon -->
<svg xmlns="http://www.w3.org/2000/svg" viewBox="0 0 512 512" width="512" height="512" role="img" aria-label="SA Systems">
  <defs>
    <linearGradient id="card" x1="0" y1="0" x2="0" y2="1">
      <stop offset="0" stop-color="#FFFFFF"/>
      <stop offset="1" stop-color="#F5F8FA"/>
    </linearGradient>
    <linearGradient id="accent" x1="0" y1="0" x2="1" y2="0">
      <stop offset="0" stop-color="#E5232A"/>
      <stop offset="1" stop-color="#1B5E7E"/>
    </linearGradient>
  </defs>
  <rect x="16" y="16" width="480" height="480" rx="104" fill="url(#card)"/>
  <rect x="16" y="16" width="480" height="480" rx="104" fill="none" stroke="#E6ECF1" stroke-width="2"/>
  <g transform="translate(70.00 132.00) scale(0.7159)">
  <g transform="translate(51.96 60.00)" fill="none" stroke-linecap="round" stroke-linejoin="round">
    <line x1="107.56" y1="-57.90" x2="152.25" y2="-32.10" stroke="#D7D9DB" stroke-width="7"/>
    <line x1="155.88" y1="-25.80" x2="155.88" y2="25.80" stroke="#D7D9DB" stroke-width="7"/>
    <line x1="152.25" y1="32.10" x2="107.56" y2="57.90" stroke="#D7D9DB" stroke-width="7"/>
    <line x1="100.29" y1="57.90" x2="55.60" y2="32.10" stroke="#D7D9DB" stroke-width="7"/>
    <line x1="51.96" y1="25.80" x2="51.96" y2="-25.80" stroke="#D7D9DB" stroke-width="7"/>
    <line x1="55.60" y1="-32.10" x2="100.29" y2="-57.90" stroke="#D7D9DB" stroke-width="7"/>
    <line x1="107.56" y1="62.10" x2="152.25" y2="87.90" stroke="#D7D9DB" stroke-width="7"/>
    <line x1="155.88" y1="94.20" x2="155.88" y2="145.80" stroke="#D7D9DB" stroke-width="7"/>
    <line x1="152.25" y1="152.10" x2="107.56" y2="177.90" stroke="#D7D9DB" stroke-width="7"/>
    <line x1="100.29" y1="177.90" x2="55.60" y2="152.10" stroke="#D7D9DB" stroke-width="7"/>
    <line x1="51.96" y1="145.80" x2="51.96" y2="94.20" stroke="#D7D9DB" stroke-width="7"/>
    <line x1="55.60" y1="87.90" x2="100.29" y2="62.10" stroke="#D7D9DB" stroke-width="7"/>
    <line x1="315.41" y1="-57.90" x2="360.09" y2="-32.10" stroke="#D7D9DB" stroke-width="7"/>
    <line x1="363.73" y1="-25.80" x2="363.73" y2="25.80" stroke="#D7D9DB" stroke-width="7"/>
    <line x1="360.09" y1="32.10" x2="315.41" y2="57.90" stroke="#D7D9DB" stroke-width="7"/>
    <line x1="308.13" y1="57.90" x2="263.44" y2="32.10" stroke="#D7D9DB" stroke-width="7"/>
    <line x1="259.81" y1="25.80" x2="259.81" y2="-25.80" stroke="#D7D9DB" stroke-width="7"/>
    <line x1="263.44" y1="-32.10" x2="308.13" y2="-57.90" stroke="#D7D9DB" stroke-width="7"/>
    <line x1="315.41" y1="62.10" x2="360.09" y2="87.90" stroke="#D7D9DB" stroke-width="7"/>
    <line x1="363.73" y1="94.20" x2="363.73" y2="145.80" stroke="#D7D9DB" stroke-width="7"/>
    <line x1="360.09" y1="152.10" x2="315.41" y2="177.90" stroke="#D7D9DB" stroke-width="7"/>
    <line x1="308.13" y1="177.90" x2="263.44" y2="152.10" stroke="#D7D9DB" stroke-width="7"/>
    <line x1="259.81" y1="145.80" x2="259.81" y2="94.20" stroke="#D7D9DB" stroke-width="7"/>
    <line x1="263.44" y1="87.90" x2="308.13" y2="62.10" stroke="#D7D9DB" stroke-width="7"/>
    <line x1="3.64" y1="-57.90" x2="48.32" y2="-32.10" stroke="#E5232A" stroke-width="11"/>
    <line x1="48.32" y1="32.10" x2="3.64" y2="57.90" stroke="#E5232A" stroke-width="11"/>
    <line x1="-3.64" y1="57.90" x2="-48.32" y2="32.10" stroke="#E5232A" stroke-width="11"/>
    <line x1="-51.96" y1="25.80" x2="-51.96" y2="-25.80" stroke="#E5232A" stroke-width="11"/>
    <line x1="-48.32" y1="-32.10" x2="-3.64" y2="-57.90" stroke="#E5232A" stroke-width="11"/>
    <line x1="3.64" y1="62.10" x2="48.32" y2="87.90" stroke="#E5232A" stroke-width="11"/>
    <line x1="48.32" y1="152.10" x2="3.64" y2="177.90" stroke="#E5232A" stroke-width="11"/>
    <line x1="-3.64" y1="177.90" x2="-48.32" y2="152.10" stroke="#E5232A" stroke-width="11"/>
    <line x1="-51.96" y1="145.80" x2="-51.96" y2="94.20" stroke="#E5232A" stroke-width="11"/>
    <line x1="-48.32" y1="87.90" x2="-3.64" y2="62.10" stroke="#E5232A" stroke-width="11"/>
    <line x1="211.48" y1="-57.90" x2="256.17" y2="-32.10" stroke="#E5232A" stroke-width="11"/>
    <line x1="159.52" y1="-32.10" x2="204.21" y2="-57.90" stroke="#E5232A" stroke-width="11"/>
    <line x1="256.17" y1="152.10" x2="211.48" y2="177.90" stroke="#E5232A" stroke-width="11"/>
    <line x1="204.21" y1="177.90" x2="159.52" y2="152.10" stroke="#E5232A" stroke-width="11"/>
    <line x1="419.33" y1="-57.90" x2="464.02" y2="-32.10" stroke="#E5232A" stroke-width="11"/>
    <line x1="467.65" y1="-25.80" x2="467.65" y2="25.80" stroke="#E5232A" stroke-width="11"/>
    <line x1="464.02" y1="32.10" x2="419.33" y2="57.90" stroke="#E5232A" stroke-width="11"/>
    <line x1="412.05" y1="57.90" x2="367.37" y2="32.10" stroke="#E5232A" stroke-width="11"/>
    <line x1="367.37" y1="-32.10" x2="412.05" y2="-57.90" stroke="#E5232A" stroke-width="11"/>
    <line x1="419.33" y1="62.10" x2="464.02" y2="87.90" stroke="#E5232A" stroke-width="11"/>
    <line x1="467.65" y1="94.20" x2="467.65" y2="145.80" stroke="#E5232A" stroke-width="11"/>
    <line x1="464.02" y1="152.10" x2="419.33" y2="177.90" stroke="#E5232A" stroke-width="11"/>
    <line x1="412.05" y1="177.90" x2="367.37" y2="152.10" stroke="#E5232A" stroke-width="11"/>
    <line x1="367.37" y1="87.90" x2="412.05" y2="62.10" stroke="#E5232A" stroke-width="11"/>
    <line x1="179.83" y1="60.00" x2="235.86" y2="60.00" stroke="#E5232A" stroke-width="11"/>
  </g>
  </g>
  <rect x="120" y="372" width="272" height="6" rx="3" fill="url(#accent)" opacity="0.85"/>
  <g text-anchor="middle">
    <text x="256" y="444" font-family="'Poppins','Segoe UI','Helvetica Neue',Arial,sans-serif" font-size="62" font-weight="800" fill="#0B1F2A" letter-spacing="1">MEDI<tspan fill="#1B5E7E" font-weight="600">FLOW</tspan></text>
    <text x="256" y="478" font-family="'Poppins','Segoe UI','Helvetica Neue',Arial,sans-serif" font-size="19" font-weight="700" fill="#5B7282" letter-spacing="4">BY SA SYSTEMS</text>
  </g>
</svg>
